<?xml version="1.0" encoding="UTF-8"?>
<svg id="Layer_1" data-name="Layer 1" xmlns="http://www.w3.org/2000/svg" xmlns:xlink="http://www.w3.org/1999/xlink" viewBox="0 0 140.68 84.7">
  <defs>
    <style>
      .cls-1 {
        fill: url(#linear-gradient);
      }
    </style>
    <linearGradient id="linear-gradient" x1="91.52" y1="-21.41" x2="245.95" y2="-21.41" gradientTransform="translate(-82.45 57.65) rotate(1.38) scale(.91 .87) skewX(2.7)" gradientUnits="userSpaceOnUse">
      <stop offset="0" stop-color="#0d2320"/>
      <stop offset="0" stop-color="#0d2320"/>
      <stop offset="0" stop-color="#103432"/>
      <stop offset="0" stop-color="#133e3e"/>
      <stop offset="0" stop-color="#144242"/>
      <stop offset="0" stop-color="#3a806c"/>
      <stop offset="0" stop-color="#dee69d"/>
      <stop offset="1" stop-color="#41836e"/>
      <stop offset="1" stop-color="#257867"/>
      <stop offset="1" stop-color="#97b284"/>
    </linearGradient>
  </defs>
  <g id="bqz8u1.tif">
    <path class="cls-1" d="M140.68,35.25l-.21-.08c-7.97,6.86-18.67-1.54-25.55-7.3-5.84-5.18-11.67-10.66-17.69-15.41-5.28-3.89-11.68-7.09-18.08-7.33-.76,.1-1.74-.36-2.49-.34-8.57-.08-16.61,3.26-22.69,9.13-1.52,1.14-2.51,2.78-3.89,4.01-2.31,2.08-2.31,2.41-5.43,4.83-2.34,2.5-5.39,4.1-8.11,6.13-1.62,.92-2.9,2.31-4.68,2.89-3.56,2.11-7.84,4.21-9.43,8.38-.73,2.67-4.19,2.8-6.61,2.87-1.17,.12-2.4-.2-3.54-.86C4.17,38.5,.37,28.23,2.59,20.05c.85-2.33,1.64-4.66,3.45-6.37,2.43-2.27,7.41-3.15,6.17-7.8-.4-2.01-1.63-3.98-3.75-5.5-.36-.63-.61-.35-.81-.14-1.12,2.55-1.8,5.38-3.27,7.76-.23,.43,.03,.81,.68,1.24,.59-.62,2.21-3.67,2.81-2-.5,1.77-1.58,3.39-2.5,4.97-.19,1.04-.99,1.72-1.49,2.61C1.81,18.84-.48,22.94,.09,27.79c.11,.55,.2,1.11,.42,1.67,.61,1.56,.32,3.11,1.71,4.68,3.74,6.86,10.47,13.46,18.42,13.46,1.09,5.77,1.5,13.29-.62,18.6-.86,2.46-1.9,4.81-3.18,7.04-.57,1.14-.37,2.48,.28,3.91,.3,.66,.52,1.31,1.36,1.82,.42,.25,.86,.7,.8,1.21,.14,1.25,1.13,2.26,2.47,2.23,2.45,0,4.94,.11,7.4,.12,.14,0,.32-.18,.29-.29-.78-1.7-2.56-2.84-3.74-4.28-.57-.67-1.71-1.43-1.46-2.36,1.68-3.42,3.87-6.59,5.31-10.13,2.74-3.46,4.58-7.62,7.37-11.06,2.14-2.28,4.94-3.98,7.85-5.13,1.46-.79,2.47-.53,4.1-.59,1.74-.18,4.78,.09,6.49,.94,.03,.52-1.47,.38-1.96,.52-2.52,.1-5.04,.8-7.48,1.31-2.34,.49-3.28,2.52-4.6,4.26-2.26,3.65-3.96,7.62-6.18,11.34-.14,.26-.1,.52,.25,.81,1.8,1.55,3.53,3.19,5.28,4.8,3.02,3.31,8.01,6.08,9.92,10.02,.16,.6,.59,.61,1.04,.6,3.63-.13,7.1,.19,10.83,.23-4.58-3.96-11.6-5.56-14.56-11.1-.96-.8-1.14-2.14-1.55-3.23-.18-.66-.09-1.23,.31-1.7,1.14-1.53,2.25-3.07,3.5-4.52,2.31-2.34,3.3-6.42,7.33-6.15,5.02,.19,10.31,2.12,15.23,2.2-.45-.63-.81-1.33-1.38-1.88-2.33-2.5-2.12-5.86-1.58-8.7,1.09-5.46-.88-11.82-5.6-15.27-2.2-1.62-4.69-2.88-6.98-4.39,0-.08,0-.16,0-.23,4.01,.52,8.29,2.75,11.16,5.86,2.96,2.68,4.48,6.72,4.81,10.53,.1,3.71-1.9,7.42,.05,10.99,4.65,7.53,9.43,15.03,14.2,22.49,.66,.96,.88,2.08,2.13,2.84,.9,.99,2.2,1,2.09,2.41,0,.45,.22,.69,.76,.71,3.83,.2,7.6,.23,11.44,.37-.02-.09-.01-.24-.08-.29-.63-.46-1.01-1.19-1.85-1.44-2.68-1.71-5.42-3.74-7.67-6.03-2.03-2.52-3.03-6.31-5.11-8.71-.61-1.36-1.25-2.74-1.98-4.09-.51-.94-.51-2.09,.05-2.94,1.24-1.9,2.22-3.97,3.31-5.98,.21-.39,.53-.48,1.08-.16,2.65,1.52,5.31,3.01,7.86,4.72,.63,.42,.74,.59,.09,.92-2.7,.55-5.21,1.39-7.93,1.88-.48-.02-.93,.1-1.32,.26-.18,.08-.27,.39-.21,.62,1.1,2.49,2.46,4.89,3.78,7.29,.96-.62,1.98-1.06,2.16-2.32,.11-1.91,2.71-1.06,4.05-1.01,3.7,.27,7.45,1.23,11.11,1.4,.13-.04,.21-.32,.13-.46-4.97-8.92-10.24-17.74-14.91-26.81-.02-.78-.77-1.71-.27-2.38,.03-.04,0-.14-.04-.22-.47-1.09,.06-1.87,.16-2.78,.02-.16,.26-.25,.4-.37,.65,.81,.63,1.9,.93,2.86,.31,1.28,1.4,2.28,2.4,3.32,2.7,2.64,7.05,6.4,4.82,10.15-.43,.64-.27,1.23,.49,1.97,1.43,2.37,5.56,4.56,7.87,2.85,1.13-.98,2.24-2.06,3.06-3.3,2-3.6,4.33-7.11,4.29-11.51,.05-1.53-2.53-2.46-3.49-3.54-1.74-1.37-4.3-3.47-4.04-5.71,2.85,3.11,6.09,6.57,10.35,7.58,6.13,1.82,14.7,1.43,17.37-5.18Zm-9.55,8.16c-8.18-1-9.37-.61-9.15,1.47,.07,.65,.28,.91,1.08,1.08,4.41,1.07,9.01,1.09,13.17-.26,2.02-1.14,2.19-1.54,3.38-2.88,.52-1.11,.5-.8,.68-1.86-2.91,1.6-5.68,2.6-9.17,2.44"/>
  </g>
</svg>